# Blender 4.0.2
# www.blender.org
mtllib grass.mtl
o Cone
v -0.123577 -0.225096 -0.263609
v 0.116554 -0.246480 0.092981
v -0.341435 -0.265820 0.214044
v -0.368749 2.976392 0.024131
vn 0.8273 0.1128 -0.5503
vn 0.0223 -0.9969 -0.0748
vn 0.2528 0.0587 0.9657
vn -0.9083 -0.0321 -0.4170
vt 0.250000 0.490000
vt 0.250000 0.250000
vt 0.457846 0.130000
vt 0.750000 0.490000
vt 0.957846 0.130000
vt 0.542154 0.130000
vt 0.042154 0.130000
s 0
f 1/1/1 4/2/1 2/3/1
f 1/4/2 2/5/2 3/6/2
f 2/3/3 4/2/3 3/7/3
f 3/7/4 4/2/4 1/1/4
o Cone.001
v 0.012456 -0.343407 -0.378621
v 0.303801 -0.306958 -0.227561
v 0.006720 -0.276984 -0.204633
v 0.022249 2.200407 -0.360374
vn 0.4598 0.0046 -0.8880
vn -0.0668 -0.9329 0.3539
vn 0.0830 0.0620 0.9946
vn -0.9994 0.0041 -0.0345
vt 0.250000 0.490000
vt 0.250000 0.250000
vt 0.457846 0.130000
vt 0.750000 0.490000
vt 0.957846 0.130000
vt 0.542154 0.130000
vt 0.042154 0.130000
s 0
f 5/8/5 8/9/5 6/10/5
f 5/11/6 6/12/6 7/13/6
f 6/10/7 8/9/7 7/14/7
f 7/14/8 8/9/8 5/8/8
o Cone.002
v -0.069934 -0.298573 0.002096
v 0.054697 -0.263236 0.342450
v -0.353890 -0.244032 0.487701
v 0.268513 2.572521 0.186790
vn 0.9382 -0.0891 -0.3343
vn -0.0089 -0.9943 0.1065
vn 0.3359 0.0264 0.9415
vn -0.8490 0.1330 -0.5114
vt 0.250000 0.490000
vt 0.250000 0.250000
vt 0.457846 0.130000
vt 0.750000 0.490000
vt 0.957846 0.130000
vt 0.542154 0.130000
vt 0.042154 0.130000
s 0
f 9/15/9 12/16/9 10/17/9
f 9/18/10 10/19/10 11/20/10
f 10/17/11 12/16/11 11/21/11
f 11/21/12 12/16/12 9/15/12
o Cone.003
v 0.273539 -0.463132 -0.164690
v 0.398170 -0.427795 0.175664
v -0.010417 -0.408591 0.320916
v 0.320863 1.980603 -0.026547
vn 0.9390 0.0013 -0.3440
vn -0.0089 -0.9943 0.1065
vn 0.3373 0.0895 0.9371
vn -0.8601 0.0454 -0.5081
vt 0.250000 0.490000
vt 0.250000 0.250000
vt 0.457846 0.130000
vt 0.750000 0.490000
vt 0.957846 0.130000
vt 0.542154 0.130000
vt 0.042154 0.130000
s 0
f 13/22/13 16/23/13 14/24/13
f 13/25/14 14/26/14 15/27/14
f 14/24/15 16/23/15 15/28/15
f 15/28/16 16/23/16 13/22/16
